<?xml version="1.0" standalone="no"?>
<!DOCTYPE svg PUBLIC "-//W3C//DTD SVG 20010904//EN"
 "http://www.w3.org/TR/2001/REC-SVG-20010904/DTD/svg10.dtd">
<svg version="1.0" xmlns="http://www.w3.org/2000/svg"
 width="460.000000pt" height="460.000000pt" viewBox="0 0 460.000000 460.000000"
 preserveAspectRatio="xMidYMid meet">
<metadata>
Created by potrace 1.14, written by Peter Selinger 2001-2017
</metadata>
<g transform="translate(0.000000,460.000000) scale(0.100000,-0.100000)"
fill="#000000" stroke="none">
<path d="M2510 4055 c-11 -13 -10 -14 4 -9 11 4 16 1 16 -10 0 -18 -21 -21
-36 -6 -7 7 -27 -1 -59 -23 -28 -19 -76 -50 -107 -70 -33 -21 -65 -51 -74 -69
-9 -18 -20 -35 -23 -38 -3 -3 -15 -22 -26 -43 -18 -36 -55 -68 -55 -50 0 4 -5
0 -11 -10 -6 -9 -14 -15 -20 -12 -5 4 -9 1 -9 -5 0 -6 -4 -9 -9 -6 -5 3 -14
-8 -21 -24 -7 -17 -16 -30 -20 -30 -4 0 -13 -14 -20 -30 -23 -56 -40 -54 -95
14 -27 34 -65 72 -85 85 -35 22 -66 58 -57 67 2 2 15 -4 28 -14 33 -25 128
-64 142 -59 7 3 -1 8 -18 12 -16 4 -57 22 -90 40 -76 40 -79 41 -86 13 -7 -31
58 -128 126 -188 51 -45 51 -45 38 -77 -7 -18 -13 -40 -13 -48 0 -28 17 -7 24
28 4 24 22 47 61 81 30 26 54 50 52 54 -3 10 33 53 67 80 20 15 32 19 41 12 6
-5 14 -8 17 -5 7 8 43 -99 57 -170 20 -99 36 -126 101 -167 65 -42 119 -49
175 -24 l30 14 -41 -5 c-40 -5 -43 -4 -83 47 -43 54 -53 59 -25 12 16 -25 15
-25 -9 3 -14 17 -31 48 -38 70 -13 40 -49 112 -75 150 -18 26 -18 39 2 31 32
-12 3 11 -35 29 l-41 18 26 23 c24 23 74 33 74 15 0 -18 56 -66 74 -63 11 2
16 0 12 -7 -4 -5 2 -15 13 -20 22 -12 84 -3 75 10 -3 5 0 9 5 9 6 0 11 -3 11
-7 0 -13 57 -73 69 -73 6 0 13 -11 17 -24 3 -14 14 -32 25 -42 10 -9 19 -23
19 -29 0 -7 7 -16 16 -19 29 -11 28 3 -2 29 -21 19 -24 24 -9 19 17 -6 18 -5
7 7 -7 8 -18 14 -24 14 -6 0 -13 6 -16 13 -2 8 2 10 14 5 29 -11 7 13 -41 45
-25 17 -41 33 -35 37 5 3 10 1 10 -4 0 -6 7 -11 15 -11 8 0 15 -4 15 -10 0 -5
7 -7 15 -4 11 5 5 12 -22 26 -21 11 -42 24 -47 29 -6 5 -18 9 -29 9 -17 0 -17
1 2 29 12 16 21 32 21 36 0 4 25 39 55 76 61 75 110 109 197 133 53 15 77 31
65 42 -2 3 -29 7 -58 11 -45 5 -52 3 -41 -8 18 -19 15 -29 -8 -29 -11 0 -20 5
-20 10 0 6 -4 10 -10 10 -5 0 -9 -5 -7 -12 1 -7 -2 -12 -8 -13 -5 0 -15 -4
-22 -8 -7 -4 -19 3 -31 17 l-19 24 -44 -25 c-24 -13 -52 -32 -62 -40 -9 -9
-20 -14 -23 -11 -3 3 10 16 28 29 46 32 74 61 81 82 6 16 5 16 -18 1 -24 -16
-51 -11 -40 7 10 15 -12 10 -25 -6z m-20 -45 c0 -5 -7 -10 -16 -10 -8 0 -12 5
-9 10 3 6 10 10 16 10 5 0 9 -4 9 -10z m320 0 c11 -7 7 -10 -17 -10 -18 0 -33
5 -33 10 0 13 30 13 50 0z m-355 -30 c-3 -5 -10 -10 -16 -10 -5 0 -9 5 -9 10
0 6 7 10 16 10 8 0 12 -4 9 -10z m146 -21 c8 -15 8 -19 0 -15 -6 4 -11 0 -11
-8 0 -23 -15 -20 -33 7 -9 12 -16 17 -16 11 -1 -6 6 -17 14 -24 8 -7 15 -16
15 -21 0 -16 -27 -9 -46 12 -18 20 -18 21 1 35 23 17 37 18 54 2 11 -11 13
-10 8 5 -9 24 0 21 14 -4z m27 -4 c-3 -3 -9 2 -12 12 -6 14 -5 15 5 6 7 -7 10
-15 7 -18z m-203 6 c8 -14 -12 -23 -36 -16 -17 6 -19 9 -8 16 18 11 36 11 44
0z m-40 -32 c11 -16 -1 -22 -30 -15 -14 4 -23 11 -20 16 8 13 42 13 50 -1z
m146 -30 c16 -31 -3 -44 -29 -21 -12 11 -22 24 -22 31 0 19 39 12 51 -10z
m-190 0 c29 -15 14 -29 -31 -29 -30 0 -38 3 -34 14 3 8 13 17 22 19 10 3 18 5
20 6 2 0 12 -4 23 -10z m159 -49 c0 -11 -7 -20 -15 -20 -8 0 -15 -9 -15 -19 0
-27 -25 -33 -52 -11 l-23 19 34 35 c28 28 38 33 53 25 10 -5 18 -19 18 -29z
m-190 0 c21 -14 -3 -29 -36 -22 -37 7 -30 21 16 31 3 0 12 -4 20 -9z m-30 -50
c8 -16 8 -18 -4 -14 -8 3 -24 0 -36 -6 -29 -16 -37 -5 -15 20 23 25 41 25 55
0z m135 -29 c21 -41 4 -47 -34 -11 -37 36 -38 40 -6 40 17 0 29 -9 40 -29z
m-55 -16 c5 -14 14 -25 20 -25 5 0 10 -4 10 -10 0 -15 -17 -12 -32 5 -7 9 -18
22 -25 29 -7 8 -9 16 -6 20 12 12 24 6 33 -19z m-73 -176 c1 -12 10 -30 19
-40 15 -17 15 -19 2 -19 -14 0 -38 46 -38 71 0 19 16 8 17 -12z m47 -96 c12
-25 12 -30 -1 -42 -14 -12 -15 -12 -11 0 2 7 -2 20 -9 28 -11 11 -12 16 -2 21
8 6 6 9 -7 13 -16 4 -16 5 -2 6 10 0 24 -11 32 -26z"/>
<path d="M2430 3846 c0 -2 7 -7 16 -10 8 -3 12 -2 9 4 -6 10 -25 14 -25 6z"/>
<path d="M2657 4033 c-11 -3 -16 -10 -13 -20 3 -8 6 -17 6 -19 0 -2 5 -4 11
-4 6 0 9 7 5 15 -4 11 1 15 19 15 14 0 25 5 25 10 0 10 -21 11 -53 3z"/>
<path d="M2004 3696 c23 -18 36 -20 36 -6 0 6 -4 10 -9 10 -5 0 -18 3 -28 6
-16 5 -16 4 1 -10z"/>
<path d="M2305 3662 c-5 -5 52 -60 81 -79 31 -20 105 -53 119 -53 7 0 31 -19
54 -41 28 -29 41 -36 41 -25 0 28 -44 59 -125 89 -53 20 -90 42 -121 71 -24
24 -46 41 -49 38z"/>
<path d="M2360 3521 c0 -6 4 -13 10 -16 6 -3 7 1 4 9 -7 18 -14 21 -14 7z"/>
<path d="M2011 3475 c-20 -23 -31 -46 -31 -65 0 -38 16 -39 23 -1 3 15 18 42
32 59 36 43 14 50 -24 7z"/>
<path d="M2690 3460 c8 -5 26 -10 39 -10 32 0 24 6 -19 14 -25 4 -31 3 -20 -4z"/>
<path d="M2230 3445 c7 -8 17 -15 22 -15 6 0 5 7 -2 15 -7 8 -17 15 -22 15 -6
0 -5 -7 2 -15z"/>
<path d="M2720 3430 c0 -4 14 -13 31 -20 22 -10 27 -15 17 -21 -10 -7 -9 -9 5
-9 9 0 17 7 17 15 0 8 -7 15 -15 15 -8 0 -15 4 -15 9 0 5 -9 11 -20 14 -11 3
-20 2 -20 -3z"/>
<path d="M1804 3338 c-36 -32 -72 -74 -89 -106 -17 -32 -45 -65 -71 -84 -47
-34 -57 -46 -23 -27 41 21 81 64 104 110 13 26 49 66 82 94 82 68 78 65 67 65
-5 0 -36 -24 -70 -52z"/>
<path d="M2100 3377 c-19 -15 -56 -72 -41 -63 6 4 24 -2 40 -13 39 -28 61 -26
101 9 18 17 28 30 21 30 -7 0 -22 11 -33 25 -21 27 -62 33 -88 12z m55 -15
c-3 -3 -11 0 -18 7 -9 10 -8 11 6 5 10 -3 15 -9 12 -12z m5 -56 c0 -2 -7 -6
-15 -10 -8 -3 -15 -1 -15 4 0 6 7 10 15 10 8 0 15 -2 15 -4z"/>
<path d="M2797 3373 c-15 -2 -25 -9 -22 -14 10 -14 42 -11 49 6 3 8 4 14 3 14
-1 -1 -14 -4 -30 -6z"/>
<path d="M1980 3351 c0 -28 19 -36 38 -18 14 15 13 15 -8 10 -19 -5 -22 -3
-17 10 4 10 2 17 -3 17 -6 0 -10 -9 -10 -19z"/>
<path d="M2820 3325 c0 -8 6 -15 14 -15 8 0 17 -6 19 -12 4 -9 6 -8 6 3 1 16
-17 39 -31 39 -4 0 -8 -7 -8 -15z"/>
<path d="M3026 3168 c-20 -20 -36 -43 -36 -52 0 -9 -3 -16 -7 -16 -5 0 -19
-17 -33 -38 -36 -53 -176 -221 -219 -262 -52 -49 -76 -93 -99 -181 -30 -120
-36 -122 -51 -13 -7 53 -10 98 -7 102 3 3 17 -5 31 -18 14 -13 25 -19 25 -13
0 5 -11 20 -24 32 -13 12 -31 40 -41 61 -10 22 -22 37 -26 34 -5 -3 -9 4 -9
15 0 12 -3 21 -8 21 -4 0 -12 9 -17 21 -6 12 -23 28 -40 38 -16 9 -32 18 -35
21 -3 3 -16 11 -30 17 -18 9 -20 12 -7 12 16 1 23 21 11 34 -3 3 -18 1 -33 -5
-14 -6 -36 -10 -48 -9 -13 0 -23 -4 -23 -9 0 -6 6 -10 14 -10 24 0 151 -69
172 -93 37 -42 37 -47 7 -85 -17 -20 -36 -55 -43 -76 -7 -22 -22 -55 -33 -73
-14 -25 -17 -37 -9 -45 9 -9 17 -7 32 7 35 32 42 9 37 -111 -12 -245 -55 -426
-115 -490 -11 -11 -25 -44 -31 -73 -14 -64 -14 -61 3 -61 12 0 13 -6 4 -32 -5
-18 -10 -39 -11 -45 0 -7 -6 -13 -14 -13 -15 0 -18 17 -4 22 12 4 23 58 12 58
-10 0 -41 -89 -41 -117 0 -12 -4 -25 -10 -28 -5 -3 -10 -15 -10 -27 0 -11 -9
-32 -19 -47 -11 -14 -27 -52 -36 -84 -9 -31 -20 -59 -25 -62 -9 -6 -23 -87
-41 -242 -11 -97 -11 -104 11 -162 12 -34 26 -64 30 -66 4 -3 8 -37 8 -76 1
-39 8 -92 17 -118 16 -48 77 -121 101 -121 8 0 26 -18 40 -40 21 -31 33 -40
56 -40 32 0 31 2 49 -90 18 -89 23 -53 6 45 -13 74 -12 93 8 150 4 14 1 12 -9
-5 l-15 -25 -1 23 c0 50 29 89 93 123 53 28 74 33 162 39 111 7 152 -2 203
-40 29 -21 72 -85 72 -106 0 -3 -20 16 -45 44 -32 36 -59 54 -94 66 -50 16
-151 20 -183 8 -10 -4 22 -7 70 -7 71 0 95 -4 130 -23 23 -12 42 -27 42 -32 0
-5 9 -12 20 -15 11 -4 17 -11 14 -17 -4 -7 -2 -8 4 -4 7 4 12 2 12 -3 0 -22 2
-26 17 -43 27 -30 23 -36 102 131 15 31 21 65 21 109 0 52 3 63 15 59 8 -4 17
-2 20 3 3 5 21 17 39 25 33 16 60 62 86 147 6 21 16 40 21 43 5 4 9 17 9 31 0
14 -4 23 -10 19 -5 -3 -7 -12 -3 -21 3 -8 -1 -22 -9 -32 -9 -9 -28 -50 -43
-90 -15 -41 -35 -76 -44 -79 -9 -3 -24 -13 -35 -22 -18 -15 -18 -15 -11 9 4
14 13 36 20 50 36 71 48 257 19 298 -16 23 -56 29 -77 12 -80 -67 -117 -84
-133 -59 -8 13 32 56 43 45 4 -4 2 -16 -5 -26 -7 -11 -8 -20 -3 -20 12 0 24
37 16 50 -11 17 14 49 54 70 22 11 49 32 61 47 14 18 44 35 86 49 57 18 65 19
79 5 13 -14 19 -11 58 27 23 23 48 42 55 42 8 0 12 -20 12 -60 0 -57 5 -66 33
-61 4 0 7 -4 7 -11 0 -6 3 -9 6 -5 3 3 21 -3 40 -14 19 -10 41 -19 49 -19 9 0
15 -9 15 -21 0 -18 -4 -20 -27 -15 -46 11 -132 59 -126 70 3 6 0 6 -7 -1 -15
-14 -7 -28 28 -46 15 -8 41 -22 57 -31 17 -9 44 -16 61 -16 28 0 32 3 38 38 3
20 6 51 6 68 0 55 80 244 103 244 6 0 4 5 -5 11 -22 12 -23 29 -3 29 8 0 15
-4 15 -10 0 -5 7 -7 15 -4 12 5 13 9 4 20 -9 11 -8 18 5 32 9 10 13 22 9 27
-5 4 -2 5 5 1 14 -9 16 -36 2 -36 -5 0 -10 -5 -10 -12 0 -6 11 -1 25 12 16 15
21 26 15 30 -6 4 -10 13 -8 21 2 8 -2 13 -7 12 -6 -1 -22 7 -35 18 l-25 19 25
0 c23 1 23 2 5 10 -18 8 -18 9 5 9 20 1 22 3 10 11 -13 9 -13 10 0 10 8 0 22
-5 30 -10 12 -8 13 -12 2 -19 -10 -6 -3 -10 23 -15 42 -8 46 -36 5 -47 l-25
-7 25 -1 c14 0 30 3 35 7 16 11 35 60 35 92 0 16 5 32 10 35 19 12 9 36 -44
108 -29 40 -56 80 -59 90 -4 9 -11 17 -17 17 -5 0 -10 6 -10 14 0 7 -12 35
-27 62 -14 27 -38 74 -53 104 -33 66 -67 89 -105 72 -14 -7 -35 -12 -45 -12
-11 0 -29 -13 -41 -30 -12 -16 -26 -27 -32 -23 -5 3 -3 9 4 14 10 6 11 9 2 9
-7 0 -13 5 -13 11 0 6 7 8 16 5 8 -3 13 -2 9 3 -4 8 41 25 70 26 6 0 16 5 23
12 7 7 20 10 30 6 9 -3 -8 19 -38 48 -30 30 -68 70 -83 89 -15 19 -46 59 -70
89 -23 29 -53 73 -67 97 -14 24 -39 57 -57 74 -18 18 -35 41 -39 53 -4 12 -10
24 -13 27 -13 10 -49 77 -61 116 -7 21 -25 53 -40 69 -15 17 -32 39 -38 49 -9
19 -12 18 -46 -16z m43 -19 c11 -12 17 -28 14 -36 -5 -12 -1 -14 15 -8 28 8
28 -9 1 -43 l-21 -27 4 24 c2 16 -6 34 -24 53 -15 16 -24 36 -21 44 7 18 9 18
32 -7z m-32 -51 c12 -26 15 -68 5 -68 -4 0 -20 10 -35 23 -26 21 -27 23 -12
45 9 12 20 22 24 22 4 0 12 -10 18 -22z m-36 -69 c16 -16 18 -23 9 -34 -9 -11
-17 -12 -31 -4 -11 5 -17 14 -14 19 3 6 -1 7 -11 3 -14 -5 -15 -3 -5 15 15 27
25 28 52 1z m68 -21 c-15 -28 -30 -12 -17 18 8 17 14 21 19 12 4 -6 3 -20 -2
-30z m-114 -30 c26 -12 29 -17 19 -42 -9 -22 -34 -1 -34 28 0 17 -2 18 -10 6
-5 -8 -12 -11 -15 -8 -7 6 2 28 10 28 2 0 16 -5 30 -12z m86 -21 c4 -15 3 -29
-1 -32 -12 -7 -23 13 -16 30 3 9 0 12 -10 8 -10 -4 -12 0 -8 11 9 23 27 15 35
-17z m92 5 c-2 -10 3 -25 13 -33 16 -13 16 -12 5 9 -6 12 -9 22 -7 22 3 0 10
-10 17 -21 8 -17 8 -23 -1 -29 -9 -6 -6 -10 9 -15 11 -3 21 -11 21 -17 0 -6 7
-20 17 -30 9 -10 11 -18 5 -18 -6 0 -14 5 -17 10 -4 6 -11 7 -17 4 -7 -5 -9 0
-6 14 4 12 2 20 -3 16 -8 -4 -19 5 -75 67 -10 12 -12 19 -5 24 6 3 14 -1 18
-11 6 -15 7 -15 14 4 10 27 19 29 12 4z m-206 -36 c17 -16 23 -28 17 -37 -13
-22 -14 -43 -1 -51 9 -6 9 -8 0 -8 -6 0 -21 13 -33 30 -12 16 -24 29 -28 29
-36 -6 -40 8 -12 39 26 27 25 27 57 -2z m66 -1 c-3 -10 0 -15 8 -13 8 2 15 -7
17 -19 4 -29 -14 -30 -28 -2 -11 19 -8 49 4 49 3 0 3 -7 -1 -15z m118 -52 c18
-21 27 -32 19 -25 -7 6 -21 12 -29 12 -11 0 -9 -6 9 -19 13 -11 28 -17 32 -15
4 3 8 0 8 -5 0 -14 -6 -14 -40 4 -17 9 -30 22 -30 30 0 8 -4 15 -10 15 -5 0
-10 5 -10 11 0 8 5 8 15 -1 18 -15 20 1 3 18 -7 7 -10 12 -7 12 3 0 21 -17 40
-37z m-251 -6 c9 -7 26 -27 39 -45 20 -29 21 -33 6 -30 -10 2 -20 -4 -22 -12
-4 -12 -3 -12 5 -2 8 11 10 11 15 -2 3 -8 1 -17 -6 -19 -7 -3 3 -4 21 -2 27 3
32 1 28 -11 -3 -9 -6 -23 -6 -31 0 -12 -3 -13 -14 -3 -8 6 -12 19 -9 27 4 11
2 14 -5 9 -15 -9 -55 12 -47 24 3 6 -1 7 -9 4 -19 -7 -22 12 -3 20 8 4 7 5 -3
5 -23 -2 -34 0 -49 10 -11 7 -10 14 8 40 25 34 29 36 51 18z m127 -18 c9 -9 8
-18 -3 -35 -19 -28 -49 -22 -33 7 5 10 7 19 4 19 -4 0 -3 5 0 10 8 13 18 13
32 -1z m295 -44 l10 -20 -18 20 c-11 11 -26 29 -34 40 -15 20 -15 20 9 0 12
-11 27 -29 33 -40z m-212 10 c10 -12 10 -15 -1 -16 -8 0 0 -5 17 -10 24 -7 32
-15 32 -33 0 -19 -3 -22 -13 -13 -7 7 -11 15 -8 19 2 4 -2 5 -10 3 -16 -7 -44
24 -44 48 0 21 10 22 27 2z m157 -1 c-3 -3 -12 -4 -19 -1 -8 3 -5 6 6 6 11 1
17 -2 13 -5z m-62 -14 c-3 -5 -1 -10 4 -10 6 0 11 -7 11 -15 0 -12 14 -15 63
-15 l62 -1 -40 -14 c-22 -8 -47 -12 -55 -9 -8 3 -12 2 -8 -1 3 -3 -4 -17 -16
-29 -11 -13 -29 -36 -39 -50 -25 -37 -33 -25 -12 16 27 53 36 90 24 104 -10
12 -5 34 7 34 3 0 2 -4 -1 -10z m-358 -26 c3 -8 9 -14 15 -14 5 0 17 -7 26
-17 13 -13 13 -15 2 -11 -8 2 -21 -1 -28 -9 -21 -20 -50 -16 -74 12 -16 19
-24 22 -30 13 -5 -9 -8 -9 -8 -1 0 6 12 20 27 31 28 20 61 18 70 -4z m449 17
c5 -5 18 -11 29 -14 11 -3 1 -5 -22 -6 -32 -1 -43 3 -43 14 0 17 21 20 36 6z
m-720 -17 c-3 -8 -2 -13 2 -10 4 2 12 -6 18 -18 11 -23 11 -23 -18 -7 -27 16
-35 31 -21 44 12 13 25 7 19 -9z m546 -46 c25 -17 30 -48 7 -48 -4 0 -5 8 -2
17 5 12 2 15 -10 10 -9 -3 -26 2 -39 13 -13 11 -17 19 -10 20 7 0 10 5 6 12
-8 12 4 7 48 -24z m258 7 c10 -12 3 -18 -42 -39 -66 -30 -99 -64 -142 -146
-30 -59 -56 -87 -56 -61 0 6 5 11 11 11 8 0 7 5 -1 15 -10 13 -10 23 5 55 10
22 22 40 26 40 4 0 16 16 25 36 18 39 57 70 74 59 5 -3 10 -1 10 5 0 6 15 17
33 25 41 18 42 18 57 0z m-808 -20 c16 -14 25 -25 19 -25 -5 0 -13 5 -16 10
-3 6 -11 10 -16 10 -6 0 -8 -4 -5 -9 3 -4 -6 -6 -19 -3 -28 5 -27 4 -19 26 8
22 21 20 56 -9z m354 -44 c4 -19 7 -22 14 -11 5 8 6 19 3 25 -3 5 0 5 7 -2 13
-12 6 -83 -8 -83 -13 0 -33 40 -26 52 5 7 2 8 -6 3 -10 -6 -12 -4 -7 9 4 10 3
15 -3 11 -5 -3 -19 3 -31 14 l-21 20 33 9 c28 7 35 6 37 -7 1 -9 5 -27 8 -40z
m-146 39 c0 -5 -3 -9 -7 -7 -5 1 -9 -1 -10 -6 -2 -4 -14 -18 -28 -30 -14 -12
-27 -32 -28 -44 -1 -13 -4 -23 -8 -23 -4 0 -10 -12 -13 -26 -4 -15 -9 -24 -12
-22 -2 3 7 37 21 75 17 46 34 74 48 81 29 14 37 14 37 2z m295 -20 c8 -13 -5
-13 -25 0 -13 8 -13 10 2 10 9 0 20 -4 23 -10z m345 -4 c9 -12 4 -18 -29 -35
-35 -19 -41 -19 -55 -6 -13 14 -15 13 -13 -4 0 -11 6 -17 12 -15 12 7 -25 -25
-59 -48 -13 -10 -40 -50 -60 -90 -19 -40 -41 -80 -48 -88 -7 -8 -12 -13 -11
-11 2 2 -3 11 -10 19 -10 13 -9 15 4 10 12 -5 21 6 37 42 12 27 24 60 28 74 3
14 10 26 16 26 5 0 6 4 3 10 -9 15 15 52 30 46 9 -3 12 0 9 9 -4 9 13 24 48
44 59 34 80 38 98 17z m-547 -49 c39 -52 40 -56 15 -52 -29 6 -48 32 -41 53 4
10 3 14 -2 10 -10 -10 -37 11 -30 23 9 13 32 -1 58 -34z m-325 27 c-4 -3 -8
-4 -11 -2 -3 2 -14 -6 -26 -16 -18 -16 -21 -17 -21 -3 0 8 6 18 13 20 17 8 51
8 45 1z m27 -4 c3 -5 1 -10 -4 -10 -6 0 -11 5 -11 10 0 6 2 10 4 10 3 0 8 -4
11 -10z m544 -4 c4 -6 3 -21 -4 -32 -9 -19 -13 -20 -30 -8 -18 14 -18 14 3 14
12 0 22 5 22 10 0 6 -6 10 -12 9 -7 -1 -20 0 -28 4 -8 3 -22 8 -30 10 -8 3 4
5 28 5 23 -1 46 -6 51 -12z m325 -10 c-3 -7 2 -16 11 -20 14 -5 14 -8 -2 -25
-30 -31 -58 -42 -73 -28 -10 9 -11 9 -6 -1 5 -8 -16 -35 -57 -75 -35 -34 -74
-80 -86 -102 -11 -22 -21 -33 -21 -24 0 8 5 20 12 27 9 9 9 12 -2 12 -10 0
-10 4 3 18 8 9 16 20 16 24 1 5 13 32 26 61 24 50 74 95 89 80 3 -3 6 0 6 9 0
8 19 24 43 35 23 11 43 21 44 22 1 0 0 -5 -3 -13z m-379 -6 c-3 -5 -12 -7 -20
-3 -21 7 -19 13 6 13 11 0 18 -4 14 -10z m-265 -30 c0 -5 -7 -7 -15 -4 -8 4
-15 8 -15 10 0 2 7 4 15 4 8 0 15 -4 15 -10z m240 -14 c0 -2 -7 -6 -15 -10 -8
-3 -15 -1 -15 4 0 6 7 10 15 10 8 0 15 -2 15 -4z m56 -18 c19 -23 19 -23 -1
-7 -21 17 -45 15 -45 -3 0 -6 7 -7 16 -4 9 4 13 2 8 -5 -4 -6 0 -15 7 -20 11
-7 12 -9 1 -9 -8 0 -22 10 -32 23 -18 21 -18 22 3 34 12 7 22 12 23 13 0 0 9
-10 20 -22z m408 -8 c-7 13 -6 13 10 1 9 -8 22 -24 28 -35 11 -20 10 -21 -10
-3 -19 18 -20 18 -18 0 1 -13 -7 -19 -28 -21 -16 -2 -33 1 -39 7 -7 7 -4 8 10
5 14 -4 20 0 20 12 0 9 -9 19 -20 22 -18 5 -18 6 4 17 20 11 25 10 37 -4 9
-11 11 -11 6 -1z m-727 4 c-3 -3 -12 -4 -19 -1 -8 3 -5 6 6 6 11 1 17 -2 13
-5z m56 -11 c-7 -2 -19 -2 -25 0 -7 3 -2 5 12 5 14 0 19 -2 13 -5z m84 -15
c-3 -8 -6 -5 -6 6 -1 11 2 17 5 13 3 -3 4 -12 1 -19z m-84 -2 c9 0 17 -4 17
-9 0 -4 5 -5 10 -2 15 10 12 -5 -6 -22 -13 -13 -13 -18 -2 -25 10 -8 10 -9 -2
-5 -8 2 -14 10 -12 17 2 7 -5 10 -20 6 -16 -4 -14 -2 6 8 l29 13 -27 7 c-15 4
-37 4 -49 1 -17 -5 -19 -4 -7 4 11 8 11 11 2 11 -7 0 -15 -7 -18 -15 -9 -23
-23 -18 -17 6 5 18 10 20 42 13 20 -4 44 -7 54 -8z m602 5 c3 -5 1 -12 -5 -16
-6 -4 -8 -11 -5 -16 4 -5 0 -9 -7 -9 -10 0 -10 -2 1 -9 17 -11 6 -31 -17 -31
-10 0 -28 -7 -40 -16 -12 -8 -26 -13 -31 -10 -5 4 -7 -2 -4 -12 2 -11 -3 -26
-11 -35 -9 -8 -16 -23 -16 -31 0 -23 -37 -57 -55 -50 -8 4 -15 10 -15 15 0 4
7 6 15 3 8 -4 15 -2 15 4 0 6 -5 12 -11 14 -6 2 1 23 16 51 26 45 40 62 29 33
-3 -8 -1 -17 5 -21 7 -3 11 2 11 15 0 27 40 88 63 96 9 3 17 10 17 15 0 6 5 7
10 4 6 -3 10 -1 10 4 0 13 17 14 25 2z m-392 -25 c21 -14 25 -21 15 -27 -10
-7 -10 -9 2 -10 8 -1 20 -1 25 1 6 1 5 -4 -2 -11 -9 -9 -18 -9 -42 1 -17 7
-28 16 -25 21 3 5 10 7 15 4 5 -4 9 -2 9 2 0 16 -38 34 -46 21 -4 -7 -3 -8 4
-4 12 7 17 -6 6 -17 -9 -9 -32 16 -27 29 6 16 34 12 66 -10z m-376 -8 c-3 -8
-6 -5 -6 6 -1 11 2 17 5 13 3 -3 4 -12 1 -19z m-68 -12 c17 -20 3 -46 -25 -46
-20 0 -24 5 -24 30 0 23 5 30 19 30 10 0 24 -6 30 -14z m970 -22 c-29 -16
-108 -19 -93 -4 12 12 95 29 108 22 5 -3 -2 -11 -15 -18z m-918 -21 c-10 -17
-10 -16 -11 3 0 23 13 41 18 25 2 -6 -1 -18 -7 -28z m113 19 c2 -4 -4 -8 -15
-8 -10 0 -19 4 -19 8 0 4 6 8 14 8 8 0 17 -4 20 -8z m271 -14 c7 -8 4 -9 -12
-5 -24 5 -32 -8 -10 -16 9 -4 9 -6 0 -6 -6 -1 -15 4 -18 9 -3 6 -22 10 -41 10
-19 0 -33 4 -29 9 3 5 22 8 43 5 32 -3 34 -2 12 6 -22 9 -21 9 10 5 19 -3 39
-10 45 -17z m-210 -8 c11 -5 14 -9 8 -9 -7 -1 -13 -5 -13 -10 0 -6 23 -8 50
-6 43 4 50 2 48 -12 -2 -9 3 -18 11 -21 10 -3 12 0 8 12 -5 11 -1 16 13 16 10
0 22 -4 25 -10 3 -5 23 -11 43 -11 24 -1 29 -3 14 -6 -33 -6 -16 -23 24 -23
26 0 34 -4 34 -17 0 -15 -2 -16 -10 -3 -7 11 -10 11 -10 2 0 -7 10 -17 23 -22
l22 -9 -25 -2 c-43 -3 -95 3 -98 11 -2 5 -9 7 -17 4 -8 -3 -22 0 -32 6 -17 11
-17 11 0 6 15 -5 16 -2 7 14 -11 21 -19 24 -44 14 -12 -5 -14 -10 -6 -20 19
-22 -56 -37 -94 -19 -16 8 -39 15 -50 15 -31 1 29 26 82 35 23 4 42 11 42 17
0 6 -6 8 -14 5 -8 -3 -28 -2 -44 2 -19 6 -39 4 -60 -5 -19 -8 -34 -9 -37 -3
-4 5 1 9 9 9 22 0 20 27 -1 33 -11 3 -7 5 10 6 15 0 27 -3 27 -8 0 -5 9 -11
20 -14 23 -6 26 3 8 21 -14 14 -2 15 27 2z m345 -20 c0 -5 -4 -10 -10 -10 -5
0 -10 5 -10 10 0 6 5 10 10 10 6 0 10 -4 10 -10z m260 -3 c0 -20 -35 -44 -63
-44 -25 0 -25 0 -10 23 13 20 18 22 37 12 19 -10 20 -10 7 5 -12 15 -11 17 8
17 11 0 21 -6 21 -13z m-828 -42 c3 -25 0 -35 -10 -35 -28 0 -52 21 -52 45 0
21 5 25 29 25 25 0 29 -4 33 -35z m78 19 c0 -2 -7 -4 -15 -4 -8 0 -15 4 -15
10 0 5 7 7 15 4 8 -4 15 -8 15 -10z m970 8 c0 -5 -16 -15 -35 -22 -20 -8 -41
-20 -47 -27 -7 -9 -15 -10 -29 -2 -28 14 -23 28 14 44 35 16 97 20 97 7z
m-560 -22 c0 -5 -8 -10 -17 -10 -15 0 -16 2 -3 10 19 12 20 12 20 0z m342 -56
c-2 -43 -26 -75 -50 -66 -15 5 -15 3 1 -12 22 -23 16 -31 -13 -16 l-21 11 25
44 c14 24 26 50 26 58 0 14 20 28 29 21 2 -2 4 -20 3 -40z m-762 30 c0 -3 -5
-15 -11 -26 -13 -23 -20 -61 -21 -100 -1 -29 -18 -40 -18 -13 0 44 26 145 37
145 7 0 13 -3 13 -6z m680 -31 c3 9 7 25 9 34 0 3 4 4 7 0 12 -12 -20 -77 -38
-77 -10 0 -18 5 -18 12 0 6 -3 8 -7 5 -3 -4 2 -17 13 -29 18 -21 6 -18 -23 5
-16 12 1 47 23 47 10 0 14 6 11 14 -3 8 -3 17 1 21 4 4 10 -4 13 -17 4 -13 8
-20 9 -15z m301 27 c0 10 3 8 9 -5 17 -40 12 -46 -32 -43 -40 3 -44 1 -54 -27
-11 -32 -37 -41 -42 -14 -7 37 92 115 110 86 5 -8 8 -7 9 3z m-118 -6 c6 -6
-19 -54 -59 -113 -28 -41 -30 -56 -8 -47 8 3 12 2 9 -4 -3 -6 -1 -10 5 -10 6
0 8 10 5 23 -4 16 2 27 19 40 31 21 42 7 16 -20 -10 -12 -17 -23 -14 -25 2 -3
-4 -12 -14 -21 -16 -15 -20 -14 -50 12 -37 33 -41 46 -11 38 15 -4 19 -3 12 4
-11 11 5 69 18 69 4 0 5 8 2 19 -3 14 3 21 24 29 35 13 38 13 46 6z m-817 -32
c-4 -3 -14 2 -24 12 -16 18 -16 18 6 6 13 -6 21 -14 18 -18z m-120 -2 c6 0 10
-10 9 -22 -2 -14 -8 -21 -16 -19 -8 2 -27 3 -44 3 -25 -1 -27 0 -10 8 19 8 19
9 1 9 -16 1 -16 3 -5 17 7 9 21 13 33 10 12 -3 26 -6 32 -6z m186 -14 c10 -7
14 -16 10 -20 -4 -4 7 -6 23 -4 21 2 29 -1 27 -10 -1 -8 3 -12 10 -9 7 2 12
10 11 16 -2 6 5 12 15 13 9 0 22 2 27 3 6 2 16 3 23 4 7 0 10 6 7 11 -8 13 6
13 25 0 21 -14 -2 -28 -38 -24 -16 2 -32 -5 -42 -16 -13 -15 -25 -17 -58 -13
-24 3 -45 10 -48 14 -3 5 -20 9 -39 9 -19 0 -37 5 -41 11 -5 8 1 10 20 7 20
-4 26 -2 22 8 -7 18 23 18 46 0z m363 -6 c-3 -5 -14 -10 -23 -10 -10 0 -30
-12 -46 -26 -18 -18 -43 -28 -72 -32 -46 -5 -62 11 -22 22 18 4 20 8 10 18
-23 23 -12 29 48 26 32 -1 62 1 66 5 11 11 46 8 39 -3z m-470 -9 c3 -5 2 -12
-3 -15 -5 -3 -9 1 -9 9 0 17 3 19 12 6z m557 -6 c1 -15 -54 -44 -82 -43 -21 0
-20 2 13 15 20 9 37 22 37 30 0 16 31 14 32 -2z m488 -37 c53 -57 54 -67 4
-47 -36 13 -105 -12 -134 -48 -19 -24 -21 -25 -45 -9 -31 20 -24 37 32 87 21
18 37 37 36 41 -2 4 6 8 17 8 11 0 20 -4 20 -10 0 -5 4 -10 10 -10 5 0 7 7 4
15 -11 28 16 15 56 -27z m-953 -4 c-1 -1 -15 0 -32 4 -30 6 -30 6 -5 12 14 4
28 2 32 -4 4 -6 6 -11 5 -12z m-191 -11 c-3 -8 -6 -17 -6 -19 0 -2 -6 -4 -14
-4 -8 0 -16 -7 -20 -15 -3 -8 -12 -15 -20 -15 -20 0 -13 47 9 64 23 17 58 9
51 -11z m294 -3 c-8 -5 -24 -9 -35 -9 -16 1 -16 2 5 9 35 11 48 11 30 0z
m-184 -7 c-10 -11 -36 -12 -36 -2 0 5 10 9 22 9 12 0 18 -3 14 -7z m434 3 c0
-3 -4 -8 -10 -11 -5 -3 -10 -1 -10 4 0 6 5 11 10 11 6 0 10 -2 10 -4z m-383
-12 c-3 -3 -12 -4 -19 -1 -8 3 -5 6 6 6 11 1 17 -2 13 -5z m91 -26 c17 -9 25
-9 34 0 14 14 52 16 44 3 -4 -5 3 -7 15 -4 16 5 18 8 7 15 -9 6 -3 7 17 3 17
-4 34 -13 38 -22 8 -13 11 -12 27 2 11 10 25 15 32 12 7 -2 22 0 33 5 11 6 7
-1 -10 -16 -16 -14 -33 -25 -37 -26 -4 0 -9 -9 -13 -20 -6 -20 -6 -20 -28 0
-23 22 -42 26 -52 10 -3 -5 -1 -10 5 -10 6 0 10 -8 8 -17 -2 -15 3 -17 30 -15
21 1 31 -2 27 -8 -8 -13 -46 -13 -79 -1 -17 7 -23 15 -19 29 4 17 -2 20 -54
21 -109 4 -128 7 -157 23 l-29 15 27 7 c26 6 54 -2 55 -16 1 -5 3 -8 6 -8 3 0
10 0 15 0 14 0 12 27 -2 34 -7 3 -2 3 12 0 14 -3 35 -10 48 -16z m473 -15
c-10 -17 -10 -16 -11 3 0 23 13 41 18 25 2 -6 -1 -18 -7 -28z m-641 15 c0 -5
-4 -8 -9 -8 -5 0 -16 -3 -25 -6 -10 -4 -16 -1 -16 9 0 10 9 14 25 13 14 0 25
-4 25 -8z m530 -2 c0 -3 -4 -8 -10 -11 -5 -3 -10 -1 -10 4 0 6 5 11 10 11 6 0
10 -2 10 -4z m597 -35 c11 -14 20 -27 20 -27 -8 -6 -66 10 -61 17 3 5 -2 9
-11 9 -10 0 -13 -5 -9 -12 6 -10 5 -10 -7 -1 -12 10 -18 10 -27 1 -6 -6 -14
-9 -18 -6 -3 4 7 14 23 22 l28 16 -30 -6 c-16 -4 -41 -11 -54 -16 -13 -5 -26
-7 -28 -4 -3 2 12 10 31 17 20 7 36 17 36 21 0 5 19 5 43 2 28 -5 49 -15 64
-33z m-647 19 c0 -5 -10 -10 -22 -10 -19 0 -20 2 -8 10 19 13 30 13 30 0z
m-560 -10 c0 -5 -5 -10 -11 -10 -5 0 -7 5 -4 10 3 6 8 10 11 10 2 0 4 -4 4
-10z m-21 -43 c1 -5 -3 -6 -8 -2 -5 3 -13 0 -17 -6 -3 -6 0 -15 7 -20 10 -6 8
-8 -8 -6 -17 1 -20 7 -18 27 2 14 4 30 4 35 1 6 6 3 11 -5 8 -12 10 -12 11 5
l0 20 9 -20 c5 -11 9 -24 9 -28z m853 11 c-7 -7 -12 -8 -12 -2 0 14 12 26 19
19 2 -3 -1 -11 -7 -17z m131 8 c12 -10 15 -16 7 -21 -6 -4 -12 -5 -13 -4 -2 2
-9 12 -16 22 -16 20 -3 22 22 3z m-437 -54 c-18 -28 -37 -48 -42 -44 -4 4 -4
2 0 -5 4 -7 -3 -17 -16 -24 -12 -7 -29 -18 -36 -26 -7 -7 -21 -13 -30 -13 -26
0 -63 30 -55 43 3 7 -3 4 -14 -6 -11 -9 -23 -14 -26 -10 -4 3 -7 1 -7 -5 0 -6
11 -14 25 -18 14 -3 22 -11 18 -17 -3 -5 -1 -7 4 -4 6 4 26 4 44 0 33 -7 33
-7 9 -14 -24 -7 -24 -7 -2 -8 12 -1 25 6 28 14 4 8 13 15 20 15 8 0 17 7 20
15 4 8 15 15 26 15 14 0 18 -5 14 -16 -4 -12 -2 -15 9 -10 8 3 15 0 16 -7 0
-7 4 -2 10 11 5 15 16 22 27 20 10 -1 31 5 46 16 19 12 31 15 38 8 12 -12 30
2 41 28 3 10 6 7 6 -7 1 -13 -3 -23 -9 -23 -5 0 -10 -10 -10 -22 0 -13 -4 -18
-8 -13 -11 16 -57 12 -83 -8 -13 -10 -34 -23 -45 -30 -12 -7 -34 -21 -50 -32
-31 -22 -135 -28 -141 -8 -2 6 -13 8 -25 5 -14 -3 -19 -1 -14 6 5 8 -1 12 -17
12 -23 0 -24 2 -17 33 21 79 43 127 59 127 14 0 14 -2 1 -11 -12 -9 -12 -10 3
-5 23 7 67 -3 67 -15 0 -5 -6 -9 -14 -9 -8 0 -17 -4 -20 -9 -3 -5 5 -8 19 -7
14 0 25 4 25 9 0 4 7 7 15 7 8 0 15 4 15 10 0 5 -7 7 -15 4 -8 -4 -15 -1 -15
5 0 6 4 11 10 11 5 0 20 12 34 26 14 16 35 27 50 27 15 0 29 4 32 9 3 5 8 7
10 5 3 -2 -11 -27 -30 -55z m104 42 c0 -8 -4 -13 -9 -10 -5 4 -13 -5 -18 -18
-6 -17 -13 -22 -26 -17 -17 6 -17 7 0 27 15 17 29 26 51 33 1 1 2 -6 2 -15z
m-706 -9 c3 -8 1 -15 -4 -15 -6 0 -10 7 -10 15 0 8 2 15 4 15 2 0 6 -7 10 -15z
m295 0 c10 -5 16 -4 19 3 7 22 41 13 48 -13 12 -48 -18 -77 -59 -57 -12 6 -45
14 -72 17 -54 7 -84 19 -72 31 3 4 12 2 19 -4 17 -14 121 -26 154 -18 40 10
21 19 -43 20 -44 1 -57 4 -55 15 2 8 -3 11 -13 8 -8 -4 -25 -2 -37 3 -17 7 -8
9 37 7 33 -2 67 -7 74 -12z m561 -6 c0 -11 -25 -39 -34 -39 -11 0 -6 36 6 48
12 12 28 7 28 -9z m-742 -1 c-6 -18 -28 -21 -28 -4 0 9 7 16 16 16 9 0 14 -5
12 -12z m822 -23 c0 -27 -3 -33 -16 -28 -8 3 -13 12 -10 20 3 8 6 21 6 29 0 8
5 14 10 14 6 0 10 -16 10 -35z m79 6 c12 -16 21 -34 21 -40 0 -6 11 -16 25
-21 l24 -9 -37 -70 c-24 -45 -44 -71 -56 -73 -21 -3 -96 -103 -96 -128 0 -20
-33 -73 -73 -116 -17 -20 -37 -45 -44 -57 -16 -28 -16 -15 -1 34 6 22 15 39
19 39 4 0 15 23 25 52 9 28 29 70 43 93 15 23 47 105 71 183 25 78 48 142 52
142 4 0 16 -13 27 -29z m266 14 c29 -5 51 -19 83 -52 38 -41 53 -73 35 -73
-14 0 -63 47 -56 54 3 3 -2 6 -12 6 -14 0 -15 3 -6 14 9 11 6 13 -15 10 -14
-1 -29 -6 -32 -10 -4 -4 0 -5 9 -2 9 4 20 -2 27 -13 10 -16 9 -19 -5 -19 -10
0 -29 3 -41 7 -18 4 -21 8 -10 15 9 7 5 8 -12 4 -14 -3 -39 -1 -55 3 -24 7
-26 10 -10 12 11 1 27 3 35 5 8 1 20 2 26 3 7 1 15 8 18 17 6 14 0 16 -39 12
-36 -5 -43 -3 -35 7 11 13 24 13 95 0z m-375 -5 c0 -5 -2 -10 -4 -10 -3 0 -8
5 -11 10 -3 6 -1 10 4 10 6 0 11 -4 11 -10z m235 1 c-6 -5 -21 -12 -35 -15
l-25 -7 25 15 c28 17 50 21 35 7z m-1134 -38 c0 -5 2 -16 4 -26 2 -9 -1 -15
-6 -11 -5 3 -9 13 -9 22 0 14 -2 15 -10 2 -5 -8 -12 -11 -15 -8 -4 4 -4 11 0
17 7 12 35 15 36 4z m1070 -16 c-13 -13 -26 -3 -16 12 3 6 11 8 17 5 6 -4 6
-10 -1 -17z m-879 -17 c17 -29 42 -32 59 -7 4 5 24 6 46 3 36 -7 39 -9 35 -35
-4 -26 -6 -27 -50 -24 -26 3 -51 9 -56 14 -6 5 -17 9 -26 9 -33 0 -70 25 -70
48 0 34 41 29 62 -8z m701 6 c10 -8 15 -20 11 -30 -11 -29 -40 -13 -40 22 0
25 4 27 29 8z m-146 -2 c-3 -3 -12 -4 -19 -1 -8 3 -5 6 6 6 11 1 17 -2 13 -5z
m61 -42 c3 -34 0 -41 -12 -36 -11 4 -16 19 -16 46 0 54 24 45 28 -10z m357 38
c4 -6 -6 -10 -22 -9 -25 0 -26 1 -8 9 11 5 21 9 22 9 1 1 5 -3 8 -9z m-535 -4
c0 -3 -4 -8 -10 -11 -5 -3 -10 -1 -10 4 0 6 5 11 10 11 6 0 10 -2 10 -4z
m-656 -36 c4 0 4 5 1 10 -3 6 -1 10 6 10 8 0 9 -10 5 -32 -6 -32 -28 -56 -34
-38 -2 6 -8 7 -13 4 -6 -3 -16 -3 -24 0 -12 4 -11 12 7 42 19 32 23 34 33 20
7 -9 15 -16 19 -16z m88 8 c-7 -7 -12 -17 -12 -22 1 -6 10 0 22 14 l21 25 -7
-27 c-3 -15 -2 -30 4 -33 5 -3 10 -12 10 -18 0 -8 -3 -8 -9 1 -4 8 -11 13 -15
13 -18 -3 -24 0 -30 14 -6 16 14 58 23 49 3 -2 -1 -10 -7 -16z m1165 16 c-3
-3 -12 -4 -19 -1 -8 3 -5 6 6 6 11 1 17 -2 13 -5z m-377 -14 c0 -5 -4 -10 -10
-10 -5 0 -10 5 -10 10 0 6 5 10 10 10 6 0 10 -4 10 -10z m-686 -24 c18 -7 51
-17 74 -21 43 -7 80 -35 48 -35 -10 0 -15 5 -11 13 3 6 0 5 -6 -4 -10 -14 -19
-14 -66 -3 -30 7 -60 17 -67 23 -7 6 -16 8 -19 4 -4 -3 -7 0 -7 9 0 14 9 28
17 28 2 0 19 -6 37 -14z m1208 -4 c8 -9 -2 -62 -11 -62 -4 0 -18 12 -32 26
-18 20 -21 28 -10 32 11 4 11 6 0 14 -10 7 -4 8 16 3 17 -3 33 -9 37 -13z
m-1345 -45 c-8 -6 -6 -7 6 -3 17 5 60 -15 54 -25 -1 -2 3 2 10 10 10 12 14 9
23 -13 22 -60 67 -72 127 -35 18 12 40 18 49 15 8 -3 12 -2 9 4 -9 14 38 12
115 -4 74 -16 144 -8 163 18 13 18 101 48 111 39 3 -4 6 1 6 10 0 19 8 21 29
8 9 -6 11 -16 5 -32 -4 -13 -8 -35 -10 -49 -1 -14 -2 -28 -3 -31 -1 -6 -52
-14 -151 -23 -25 -3 -35 -2 -22 0 27 6 29 20 4 26 -19 5 -70 -28 -52 -34 5 -1
-19 -4 -54 -5 -36 -2 -76 -7 -91 -13 -53 -20 -265 34 -265 67 0 7 -8 13 -17
13 -15 0 -16 -2 -3 -10 12 -8 11 -10 -6 -10 -12 0 -27 7 -34 15 -7 8 -19 15
-26 15 -16 0 -17 4 -5 28 5 9 12 26 16 37 5 16 8 17 15 5 6 -9 5 -18 -3 -23z
m823 21 c-1 -7 -7 -24 -15 -38 -15 -26 -19 -12 -9 28 7 23 24 31 24 10z m37 0
c-17 -41 -33 -68 -39 -68 -14 0 -9 28 8 44 8 9 12 20 9 26 -3 5 1 10 10 10 10
0 15 -5 12 -12z m226 5 c-7 -2 -19 -2 -25 0 -7 3 -2 5 12 5 14 0 19 -2 13 -5z
m-313 -15 c0 -2 -7 -23 -14 -48 -14 -42 -15 -43 -15 -13 -1 37 7 63 20 63 5 0
9 -1 9 -2z m327 -4 c-3 -3 -12 -4 -19 -1 -8 3 -5 6 6 6 11 1 17 -2 13 -5z
m-50 -10 c-3 -3 -12 -4 -19 -1 -8 3 -5 6 6 6 11 1 17 -2 13 -5z m-1134 -17 c9
-1 16 -6 14 -12 -2 -5 -11 -9 -19 -9 -10 1 -14 -5 -11 -17 3 -11 0 -19 -6 -19
-6 0 -12 8 -12 18 -1 15 -2 16 -6 0 -7 -28 -33 -9 -33 24 0 28 2 30 28 24 15
-4 35 -8 45 -9z m1262 3 c3 -6 -1 -7 -9 -4 -18 7 -21 14 -7 14 6 0 13 -4 16
-10z m-992 -9 c35 -1 34 -12 -2 -34 -24 -14 -30 -15 -34 -3 -4 9 1 17 11 19
12 3 11 5 -5 6 -12 0 -24 5 -27 10 -4 5 2 8 11 6 10 -2 30 -4 46 -4z m980 -15
c19 -15 23 -31 5 -20 -10 5 -10 3 0 -7 11 -12 14 -12 22 1 7 12 11 10 18 -10
7 -18 6 -29 -4 -40 -12 -12 -17 -10 -42 13 -15 15 -33 27 -40 27 -14 0 -12 18
3 37 13 15 16 15 38 -1z m-103 -36 c22 0 50 -10 73 -26 36 -24 37 -27 20 -39
-10 -8 -30 -11 -45 -8 -23 4 -28 2 -28 -13 0 -15 2 -16 9 -5 5 7 11 9 14 5 3
-5 -1 -14 -8 -21 -10 -10 -15 -9 -21 5 -14 34 -13 51 4 55 13 4 11 5 -5 6 -14
1 -23 -5 -23 -14 0 -20 -41 -19 -66 1 -18 15 -18 15 0 10 16 -6 17 -4 6 9 -7
9 -19 14 -27 11 -7 -3 -13 -1 -13 5 0 7 12 9 30 7 27 -4 30 -2 24 16 -5 17 -4
19 7 9 7 -7 29 -13 49 -13z m-1045 -14 c38 -7 144 -45 155 -56 3 -3 12 -5 20
-5 8 0 44 -4 80 -9 42 -5 75 -4 93 3 18 7 26 7 22 1 -3 -6 1 -10 10 -10 9 0
13 5 9 11 -4 7 17 10 69 7 41 -2 73 0 71 3 -7 12 127 22 138 11 16 -16 1 -57
-24 -70 -22 -10 -22 -11 -2 -11 17 -1 20 -6 16 -26 -3 -19 -12 -26 -41 -30
-20 -4 -66 -12 -103 -19 -40 -8 -68 -10 -68 -4 0 5 -7 2 -16 -6 -8 -9 -32 -16
-52 -16 -46 0 -133 25 -112 32 8 3 3 4 -12 2 -14 -2 -66 8 -115 22 -82 24
-104 28 -168 32 -18 2 -25 8 -26 25 -1 16 -2 18 -6 5 -5 -20 -20 -23 -43 -8
-11 7 -18 3 -27 -13 -7 -12 -12 -26 -12 -32 0 -5 6 1 14 15 8 14 14 21 15 15
0 -5 10 -11 23 -12 21 -2 115 -16 185 -28 20 -4 30 -10 26 -17 -4 -7 -3 -8 4
-4 14 9 63 -4 57 -14 -3 -5 4 -6 14 -3 10 3 39 -4 64 -15 25 -11 56 -18 71
-15 15 3 26 1 26 -6 0 -8 6 -8 18 -2 9 5 49 15 87 21 69 12 86 14 153 23 18 2
35 0 38 -5 3 -4 2 -8 -3 -7 -22 4 -32 -3 -35 -23 -2 -16 -11 -24 -28 -26 -14
-2 -39 -10 -57 -18 -38 -17 -122 -17 -188 0 -30 8 -52 10 -56 4 -3 -5 -18 -6
-33 -2 -21 5 -24 9 -14 15 20 13 -6 11 -37 -3 -21 -9 -28 -9 -34 0 -4 7 -43
17 -87 22 -43 5 -88 11 -99 15 -40 12 -154 70 -155 78 0 5 4 5 10 2 6 -4 7 1
3 11 -4 10 0 21 9 28 8 6 21 26 29 44 15 35 20 37 52 20 12 -7 33 -13 47 -15
27 -3 66 -13 147 -37 28 -9 59 -16 67 -16 9 0 16 -5 16 -11 0 -5 4 -8 9 -4 5
3 28 -2 50 -11 35 -14 54 -14 143 -5 56 6 120 17 142 23 31 10 40 10 44 0 5
-15 22 -6 22 12 0 13 0 12 -236 -21 -27 -3 -70 2 -125 17 -46 12 -109 28 -139
35 -30 8 -57 14 -60 15 -3 1 -9 3 -15 4 -73 16 -93 28 -63 38 7 3 6 7 -5 11
-11 4 -17 1 -17 -8 0 -18 -14 -19 -39 -3 -18 11 -18 12 3 29 11 9 26 14 31 9
6 -4 28 -10 50 -14z m-151 -36 c-10 -16 -19 -28 -21 -26 -6 6 20 56 29 56 5 0
1 -13 -8 -30z m869 -11 c-5 -18 -14 -34 -21 -37 -7 -2 -10 2 -7 10 20 56 26
70 31 65 3 -2 1 -20 -3 -38z m53 26 c-3 -8 -1 -15 3 -15 5 0 12 6 14 13 4 9 6
9 6 -1 1 -7 -6 -15 -14 -18 -8 -4 -12 -11 -8 -17 3 -6 1 -7 -5 -3 -7 4 -12 1
-13 -6 0 -8 -2 -9 -5 -2 -5 13 12 64 22 64 3 0 4 -7 0 -15z m204 -46 c25 -7
53 -22 62 -33 18 -22 24 -41 10 -32 -5 3 -9 -1 -9 -8 0 -8 6 -12 14 -9 7 3 13
1 13 -5 0 -27 -44 -18 -85 18 -11 10 -29 20 -40 22 -11 2 -20 8 -20 13 0 6 -4
16 -8 23 -5 7 -4 12 3 12 8 0 8 6 0 23 -10 19 -9 20 2 6 8 -9 34 -23 58 -30z
m160 -39 c0 -5 -4 -10 -10 -10 -5 0 -10 5 -10 10 0 6 5 10 10 10 6 0 10 -4 10
-10z m-1341 -45 c0 -5 -4 -3 -9 5 -5 8 -9 22 -9 30 0 16 17 -16 18 -35z m911
13 c0 -5 -4 -8 -10 -8 -5 0 -10 10 -10 23 0 18 2 19 10 7 5 -8 10 -18 10 -22z
m50 20 c0 -7 -7 -22 -15 -32 -16 -21 -18 -15 -9 22 7 23 24 31 24 10z m100
-28 c0 -5 6 -7 13 -4 16 6 43 -23 32 -34 -4 -4 -10 -1 -12 6 -3 6 -9 12 -15
12 -6 0 -8 -6 -5 -13 3 -8 1 -20 -4 -28 -7 -11 -9 -8 -9 9 0 13 -4 21 -9 17
-13 -8 -22 10 -15 29 7 17 24 22 24 6z m-1070 -44 c0 -2 -7 -9 -15 -16 -13
-11 -14 -10 -9 4 5 14 24 23 24 12z m97 -16 c23 -14 31 -25 27 -37 -4 -13 -3
-14 3 -5 8 10 24 9 84 -4 41 -9 94 -20 119 -23 25 -4 52 -11 60 -16 8 -5 28
-9 45 -10 16 0 31 -4 32 -10 1 -5 10 -13 20 -17 10 -5 -7 -7 -42 -4 -38 3 -53
1 -40 -4 11 -5 38 -9 60 -9 33 -1 42 3 50 22 7 15 17 21 35 20 151 -14 167
-14 195 -2 17 7 33 12 38 11 4 -1 7 2 7 7 0 5 14 9 30 9 17 -1 30 -3 30 -6 0
-8 -54 -47 -62 -45 -4 2 -5 -4 -2 -12 7 -18 -12 -20 -20 -2 -3 6 -4 4 -3 -7 1
-14 -5 -19 -30 -21 -18 -1 -30 1 -27 7 3 5 -5 7 -18 4 -12 -3 -60 -7 -105 -10
-60 -5 -83 -3 -86 7 -4 9 -7 9 -14 0 -9 -12 -32 -8 -123 19 -19 5 -66 13 -104
18 -37 4 -72 13 -76 19 -4 7 -10 12 -14 11 -18 -5 -85 13 -80 21 3 5 2 8 -3 7
-4 -1 -18 3 -30 10 -19 11 -23 10 -23 -3 0 -8 4 -15 10 -15 5 0 18 -10 29 -21
12 -13 26 -19 36 -16 8 4 39 -2 68 -12 28 -11 81 -23 116 -26 42 -5 59 -10 50
-16 -16 -10 -8 -12 39 -9 18 1 46 -2 64 -5 26 -6 29 -9 14 -17 -23 -13 -56
-18 -56 -9 0 13 -75 24 -170 25 -65 1 -93 6 -118 21 -28 17 -30 21 -15 27 12
4 4 7 -22 7 -30 1 -36 4 -25 11 11 8 7 9 -14 4 l-28 -7 6 49 c13 93 23 101 83
64z m801 -30 c-2 -27 -6 -50 -10 -50 -10 0 -10 27 -2 69 9 46 14 38 12 -19z
m123 30 c-21 -18 -17 -26 12 -21 9 1 9 -13 0 -22 -3 -4 -15 0 -25 10 -17 15
-17 17 -2 35 10 10 22 18 28 18 6 -1 0 -10 -13 -20z m212 14 c-7 -3 -9 -13 -6
-22 5 -13 3 -14 -7 -5 -14 13 -5 33 13 32 9 0 9 -2 0 -5z m-173 -23 c0 -6 -9
-9 -19 -8 -11 0 -17 5 -15 9 7 11 34 10 34 -1z m124 -15 c31 -23 74 -42 89
-38 10 3 9 -10 -2 -27 -8 -12 -15 -11 -48 6 -21 11 -38 25 -38 31 0 6 -3 14
-7 18 -5 4 -8 2 -8 -5 0 -8 -5 -9 -18 -2 -13 7 -22 7 -29 0 -7 -7 -9 -2 -6 15
7 32 27 33 67 2z m109 -13 c-4 -10 -10 -10 -26 -1 -31 15 -31 15 1 14 19 -1
28 -5 25 -13z m-1307 -5 c4 -7 3 -8 -5 -4 -8 5 -10 0 -7 -16 3 -18 -1 -24 -16
-25 -14 -1 -18 3 -14 13 3 9 6 22 6 30 0 17 26 19 36 2z m1000 -4 c-3 -8 -2
-12 3 -9 5 3 12 1 15 -4 3 -5 -1 -11 -9 -15 -8 -3 -17 -1 -21 5 -6 11 2 39 12
39 3 0 3 -7 0 -16z m165 -25 c11 -5 16 -15 13 -21 -4 -6 -3 -8 4 -4 14 8 65
-11 58 -23 -4 -5 3 -7 14 -4 16 4 20 0 20 -21 0 -15 -5 -24 -12 -22 -112 31
-126 39 -130 73 -4 35 2 39 33 22z m-1174 -52 c3 -4 2 -7 -4 -7 -6 0 -8 -10
-6 -22 4 -20 0 -23 -31 -25 -28 -2 -34 0 -30 12 4 8 10 15 16 15 5 0 7 9 3 19
-5 16 -2 19 20 17 14 -1 28 -6 32 -9z m112 -42 c63 -33 72 -35 151 -33 57 2
85 -1 87 -9 3 -7 10 -10 17 -7 8 3 16 -2 19 -10 4 -9 11 -16 17 -16 6 0 8 5 5
10 -3 6 1 10 9 10 8 0 18 -5 21 -10 4 -6 16 -8 27 -5 14 5 21 1 25 -14 3 -12
9 -21 14 -21 5 0 6 7 3 15 -5 12 5 15 53 15 37 0 67 -6 79 -15 18 -13 16 -15
-21 -17 -82 -4 -101 -6 -160 -18 -104 -21 -170 -23 -201 -7 -16 8 -45 18 -64
22 -70 14 -110 26 -109 33 3 18 -2 32 -11 32 -5 0 -7 -7 -4 -14 5 -13 1 -13
-25 -3 -32 12 -37 28 -25 75 8 29 14 28 93 -13z m575 -30 c6 -17 26 -20 26 -4
0 5 -4 7 -10 4 -5 -3 -10 -1 -10 4 0 13 3 13 25 5 14 -6 14 -8 -1 -25 -12 -14
-31 -19 -66 -19 -27 0 -47 3 -45 8 3 4 -14 7 -36 6 -49 0 -106 12 -72 16 11 2
43 3 72 4 29 1 55 5 59 9 13 13 52 7 58 -8z m-715 -19 c15 -18 -1 -35 -39 -42
-19 -3 -30 -2 -25 3 6 4 10 18 9 29 -1 16 5 22 22 22 13 0 28 -6 33 -12z m75
-41 c11 -8 33 -15 49 -15 19 0 26 -4 21 -12 -4 -7 -3 -8 4 -4 16 9 93 -15 99
-31 3 -7 9 -10 14 -7 13 8 99 -7 99 -17 0 -5 -8 -10 -17 -10 -10 -1 -4 -5 12
-9 23 -6 13 -8 -45 -11 -41 -2 -92 -2 -113 -1 -82 5 -193 92 -160 125 9 10 15
8 37 -8z m-110 -37 c-5 -7 0 -9 14 -6 18 5 19 3 10 -18 -12 -26 -38 -33 -38
-9 0 9 -6 12 -15 9 -21 -8 -19 13 3 25 23 14 35 14 26 -1z m716 -9 c0 -5 -19
-18 -42 -29 -43 -18 -97 -24 -213 -21 -56 1 -58 2 -38 16 12 8 51 18 88 21 37
3 79 10 93 14 40 12 112 12 112 -1z m163 -6 c-7 -2 -19 -2 -25 0 -7 3 -2 5 12
5 14 0 19 -2 13 -5z m-823 -10 c2 -43 12 -162 15 -175 3 -15 -4 -18 -46 -18
-53 0 -54 1 -49 69 3 45 79 161 80 124z m61 -37 c28 -24 56 -30 203 -40 48 -3
92 5 128 24 11 6 19 6 24 -1 4 -7 30 -9 71 -6 36 3 62 3 59 0 -9 -9 -57 -16
-129 -17 -74 -1 -93 -20 -32 -32 20 -3 34 -9 31 -11 -3 -3 -62 -8 -132 -10
-177 -7 -246 16 -260 85 -8 38 -1 40 37 8z m583 -11 c-7 -16 -24 -21 -24 -6 0
8 7 13 27 20 1 1 0 -6 -3 -14z m-740 -51 c-16 -23 -20 -25 -22 -10 -2 10 -1
29 3 43 6 24 8 25 22 11 13 -14 13 -18 -3 -44z m971 8 c-3 -8 -6 -21 -6 -30
-1 -9 -4 -3 -8 13 -4 22 -13 31 -31 34 -23 3 -23 4 -5 11 24 9 57 -10 50 -28z
m-295 -12 c-20 -13 -33 -13 -25 0 3 6 14 10 23 10 15 0 15 -2 2 -10z m70 0
c-8 -5 -22 -10 -30 -10 -13 0 -13 1 0 10 8 5 22 10 30 10 13 0 13 -1 0 -10z
m-585 -27 c11 -6 19 -16 17 -23 -1 -7 3 -8 10 -4 6 4 70 8 142 9 72 0 111 -1
87 -3 -33 -2 -44 -8 -48 -23 -3 -10 -10 -19 -15 -19 -5 0 -6 -5 -3 -11 5 -7
12 -6 23 4 13 11 23 12 42 5 l25 -9 -34 -15 c-19 -8 -36 -12 -39 -10 -2 3 -13
1 -24 -5 -12 -7 -29 -7 -51 0 -138 42 -143 44 -155 69 -13 28 -16 74 -4 57 4
-5 16 -15 27 -22z m413 0 c-10 -2 -26 -2 -35 0 -10 3 -2 5 17 5 19 0 27 -2 18
-5z m132 3 c0 -2 -9 -6 -20 -9 -11 -3 -20 -1 -20 4 0 5 9 9 20 9 11 0 20 -2
20 -4z m-68 -34 c-15 -15 -79 -48 -202 -105 l-35 -16 35 0 c28 -1 32 2 20 10
-13 9 -12 10 3 5 9 -3 28 -1 42 4 18 7 23 6 19 -3 -6 -16 -88 -39 -109 -31
-10 4 -15 0 -15 -10 0 -13 -11 -16 -50 -16 -46 0 -63 5 -110 32 -8 4 -25 12
-36 17 -21 9 -57 51 -50 58 1 2 16 -1 32 -6 16 -5 62 -15 102 -22 53 -9 71
-16 68 -26 -9 -23 9 -14 19 10 8 17 19 22 48 23 22 1 42 7 47 14 4 6 19 13 33
13 14 1 23 5 21 8 -2 4 11 10 29 13 17 4 43 15 57 26 32 25 57 27 32 2z m328
-7 c0 -8 -4 -15 -9 -15 -13 0 -22 16 -14 24 11 11 23 6 23 -9z m-970 -19 c0
-3 -4 -8 -10 -11 -5 -3 -10 -1 -10 4 0 6 5 11 10 11 6 0 10 -2 10 -4z m471
-14 c-7 -2 -18 1 -23 6 -8 8 -4 9 13 5 13 -4 18 -8 10 -11z m185 -43 c-9 -24
-16 -77 -16 -116 0 -69 -10 -93 -24 -57 -16 41 5 176 32 207 22 25 25 15 8
-34z m-534 27 c15 -22 7 -26 -42 -26 -37 0 -50 4 -50 14 0 13 20 19 70 22 8 1
18 -4 22 -10z m824 -23 c-11 -11 -17 4 -9 23 7 18 8 18 11 1 2 -10 1 -21 -2
-24z m-939 5 c-3 -8 -6 -5 -6 6 -1 11 2 17 5 13 3 -3 4 -12 1 -19z m926 -38
c-3 -12 -8 -19 -11 -16 -5 6 5 36 12 36 2 0 2 -9 -1 -20z m-423 -40 c-8 -5
-25 -10 -37 -10 -13 0 -23 -4 -23 -9 0 -15 -83 -50 -110 -46 -14 2 -41 7 -61
10 -26 4 -39 13 -48 31 -12 27 -4 26 32 -4 10 -9 17 -11 17 -4 0 8 15 10 43 7
28 -4 64 1 102 14 67 22 111 28 85 11z m-274 -139 c0 -45 6 -78 16 -93 10 -16
13 -30 8 -38 -7 -11 -12 -7 -21 15 -20 49 -25 185 -7 185 2 0 3 -31 4 -69z"/>
<path d="M3120 2931 c0 -6 4 -13 10 -16 6 -3 7 1 4 9 -7 18 -14 21 -14 7z"/>
<path d="M2890 2906 c0 -2 8 -10 18 -17 15 -13 16 -12 3 4 -13 16 -21 21 -21
13z"/>
<path d="M3040 2731 c0 -5 7 -11 15 -15 8 -3 15 -1 15 3 0 5 -7 11 -15 15 -8
3 -15 1 -15 -3z"/>
<path d="M3300 2469 c0 -5 5 -7 10 -4 6 3 10 8 10 11 0 2 -4 4 -10 4 -5 0 -10
-5 -10 -11z"/>
<path d="M2534 2485 c-10 -8 -14 -14 -9 -15 15 0 40 18 34 24 -3 3 -14 -1 -25
-9z"/>
<path d="M2922 2391 c16 -25 31 -27 26 -4 -2 10 -11 19 -21 21 -16 3 -17 1 -5
-17z"/>
<path d="M2790 2371 c-34 -6 -34 -11 3 -24 12 -5 16 -3 11 5 -5 8 -2 9 9 5 11
-4 17 -1 17 8 0 8 -1 14 -2 14 -2 -1 -19 -4 -38 -8z"/>
<path d="M2515 2410 c-3 -5 -2 -10 4 -10 5 0 13 5 16 10 3 6 2 10 -4 10 -5 0
-13 -4 -16 -10z"/>
<path d="M3540 2200 c0 -5 5 -10 11 -10 5 0 7 5 4 10 -3 6 -8 10 -11 10 -2 0
-4 -4 -4 -10z"/>
<path d="M2668 2193 c7 -3 16 -2 19 1 4 3 -2 6 -13 5 -11 0 -14 -3 -6 -6z"/>
<path d="M2970 2030 c0 -5 5 -10 11 -10 5 0 7 5 4 10 -3 6 -8 10 -11 10 -2 0
-4 -4 -4 -10z"/>
<path d="M2621 2044 c0 -11 3 -14 6 -6 3 7 2 16 -1 19 -3 4 -6 -2 -5 -13z"/>
<path d="M2420 1980 c0 -5 5 -10 11 -10 5 0 7 5 4 10 -3 6 -8 10 -11 10 -2 0
-4 -4 -4 -10z"/>
<path d="M2390 1970 c0 -5 5 -10 11 -10 5 0 7 5 4 10 -3 6 -8 10 -11 10 -2 0
-4 -4 -4 -10z"/>
<path d="M2658 1953 c6 -2 18 -2 25 0 6 3 1 5 -13 5 -14 0 -19 -2 -12 -5z"/>
<path d="M2910 1846 c0 -10 9 -16 21 -16 24 0 21 23 -4 28 -10 2 -17 -3 -17
-12z"/>
<path d="M2850 1830 c0 -5 5 -10 10 -10 6 0 10 5 10 10 0 6 -4 10 -10 10 -5 0
-10 -4 -10 -10z"/>
<path d="M3550 1840 c-8 -5 -10 -10 -5 -10 6 0 17 5 25 10 8 5 11 10 5 10 -5
0 -17 -5 -25 -10z"/>
<path d="M3610 1820 c11 -21 25 -26 34 -11 3 4 -6 13 -20 19 -23 11 -24 10
-14 -8z"/>
<path d="M3130 1779 c0 -5 5 -7 10 -4 6 3 10 8 10 11 0 2 -4 4 -10 4 -5 0 -10
-5 -10 -11z"/>
<path d="M2945 1770 c24 -6 25 -8 8 -9 -16 -1 -21 -6 -17 -16 4 -8 10 -15 16
-15 5 0 7 4 4 9 -4 5 3 7 14 4 15 -4 19 -2 14 10 -4 11 2 17 18 20 13 2 -2 4
-32 4 -45 1 -49 -1 -25 -7z"/>
<path d="M2420 1690 c0 -5 6 -10 13 -10 8 0 7 -4 -3 -10 -17 -11 -10 -13 14
-4 13 5 13 8 1 20 -16 16 -25 18 -25 4z"/>
<path d="M2777 1679 c7 -7 15 -10 18 -7 3 3 -2 9 -12 12 -14 6 -15 5 -6 -5z"/>
<path d="M2949 1681 c11 -7 11 -9 0 -14 -8 -3 -9 -6 -3 -6 5 -1 19 6 30 14 18
14 18 14 -11 15 -21 0 -26 -3 -16 -9z"/>
<path d="M2876 1651 c-4 -5 3 -7 14 -4 23 6 26 13 6 13 -8 0 -17 -4 -20 -9z"/>
<path d="M2740 1609 c0 -5 5 -7 10 -4 6 3 10 8 10 11 0 2 -4 4 -10 4 -5 0 -10
-5 -10 -11z"/>
<path d="M2415 1570 c3 -5 8 -10 11 -10 2 0 4 5 4 10 0 6 -5 10 -11 10 -5 0
-7 -4 -4 -10z"/>
<path d="M3490 1586 c0 -2 7 -7 16 -10 8 -3 12 -2 9 4 -6 10 -25 14 -25 6z"/>
<path d="M2343 1469 c1 -10 6 -19 12 -19 16 0 15 28 -1 34 -8 3 -12 -3 -11
-15z"/>
<path d="M2476 1385 c-3 -9 0 -15 8 -15 7 0 13 7 13 15 0 8 -4 15 -8 15 -4 0
-9 -7 -13 -15z"/>
<path d="M2530 1360 c8 -5 20 -10 25 -10 6 0 3 5 -5 10 -8 5 -19 10 -25 10 -5
0 -3 -5 5 -10z"/>
<path d="M2638 1353 c7 -3 16 -2 19 1 4 3 -2 6 -13 5 -11 0 -14 -3 -6 -6z"/>
<path d="M2348 1353 c7 -3 16 -2 19 1 4 3 -2 6 -13 5 -11 0 -14 -3 -6 -6z"/>
<path d="M2358 1333 c7 -3 16 -2 19 1 4 3 -2 6 -13 5 -11 0 -14 -3 -6 -6z"/>
<path d="M2357 1309 c7 -7 15 -10 18 -7 3 3 -2 9 -12 12 -14 6 -15 5 -6 -5z"/>
<path d="M2227 1213 c-11 -10 -8 -51 3 -58 20 -13 32 7 15 25 -9 10 -14 24
-10 29 7 12 2 15 -8 4z"/>
<path d="M2367 1069 c7 -7 15 -10 18 -7 3 3 -2 9 -12 12 -14 6 -15 5 -6 -5z"/>
<path d="M2526 3117 c-11 -23 -22 -45 -24 -49 -2 -5 1 -8 7 -8 13 0 44 64 39
84 -2 9 -11 -2 -22 -27z"/>
<path d="M1720 3130 c0 -5 7 -7 15 -4 8 4 15 8 15 10 0 2 -7 4 -15 4 -8 0 -15
-4 -15 -10z"/>
<path d="M1560 3080 c-14 -10 -21 -22 -17 -26 4 -4 7 -2 7 4 0 7 9 12 20 12
11 0 20 7 20 15 0 19 0 19 -30 -5z"/>
<path d="M1650 3060 c-11 -7 -6 -8 18 -4 28 6 32 4 32 -14 0 -11 -17 -37 -37
-57 -41 -40 -26 -37 19 4 36 32 39 81 6 81 -13 0 -30 -5 -38 -10z"/>
<path d="M1550 2980 c0 -63 1 -66 34 -88 24 -16 42 -22 57 -17 14 5 19 3 15
-3 -12 -20 24 -42 67 -41 l42 2 -39 6 c-24 4 -43 14 -50 26 -15 28 -28 36 -48
31 -9 -2 -19 3 -23 12 -4 11 -8 13 -13 5 -5 -8 -10 -8 -17 1 -15 16 -18 65 -6
80 8 9 7 18 -4 32 -13 17 -14 13 -15 -46z"/>
<path d="M1627 3019 c-12 -9 -19 -20 -15 -24 9 -10 68 17 68 31 0 16 -29 13
-53 -7z"/>
<path d="M2260 2965 c-19 -14 -30 -25 -26 -25 11 0 49 21 64 37 22 22 -2 15
-38 -12z"/>
<path d="M2421 2973 c-1 -17 16 -25 25 -12 4 7 3 9 -4 5 -5 -3 -13 0 -15 6 -4
9 -6 10 -6 1z"/>
<path d="M1588 2953 c6 -2 18 -2 25 0 6 3 1 5 -13 5 -14 0 -19 -2 -12 -5z"/>
<path d="M1765 2927 c-58 -24 -60 -25 -52 -33 3 -3 18 1 34 9 40 21 75 35 98
40 16 4 14 5 -5 5 -14 0 -47 -9 -75 -21z"/>
<path d="M2195 2930 c-16 -7 -17 -9 -3 -9 9 -1 20 4 23 9 7 11 7 11 -20 0z"/>
<path d="M1915 2915 c-38 -18 -70 -43 -63 -50 2 -3 13 4 23 15 10 11 22 20 27
20 13 0 29 -48 38 -110 l7 -55 2 47 c0 26 -4 59 -9 74 -7 18 -7 31 -1 37 7 7
14 1 20 -16 6 -15 13 -27 16 -27 2 0 0 11 -5 25 -5 14 -6 25 -1 25 12 0 22
-45 15 -64 -3 -9 -2 -16 3 -16 18 0 33 25 34 55 0 16 3 25 5 19 3 -8 20 -8 57
-2 66 12 78 23 15 14 -26 -4 -49 -3 -52 3 -3 5 -15 7 -25 4 -10 -3 -22 0 -25
6 -10 15 -45 13 -81 -4z"/>
<path d="M1879 2863 c-8 -9 -9 -14 -2 -10 6 4 20 -5 32 -20 15 -20 19 -22 14
-8 -3 11 -12 28 -18 38 -12 16 -13 16 -26 0z"/>
<path d="M1785 2850 c-3 -5 -2 -10 4 -10 5 0 13 5 16 10 3 6 2 10 -4 10 -5 0
-13 -4 -16 -10z"/>
<path d="M2002 2785 c-7 -22 -15 -47 -18 -55 -3 -8 5 2 16 23 12 21 20 46 18
55 -2 10 -9 0 -16 -23z"/>
<path d="M3768 1883 c7 -3 16 -2 19 1 4 3 -2 6 -13 5 -11 0 -14 -3 -6 -6z"/>
<path d="M3371 1418 c-5 -13 -15 -57 -22 -98 -14 -84 -31 -107 -40 -57 l-6 32
-2 -36 c0 -20 -8 -42 -16 -49 -8 -7 -15 -18 -15 -25 0 -7 17 4 39 24 34 32 40
45 54 117 9 44 19 88 23 97 3 9 3 17 0 17 -4 0 -10 -10 -15 -22z"/>
<path d="M3255 1150 c-3 -5 -1 -10 4 -10 6 0 11 5 11 10 0 6 -2 10 -4 10 -3 0
-8 -4 -11 -10z"/>
<path d="M2527 789 c-26 -17 -47 -33 -47 -36 0 -5 3 -3 69 39 25 15 40 28 35
28 -6 0 -32 -14 -57 -31z"/>
<path d="M2482 365 c0 -11 3 -29 8 -40 11 -25 11 1 0 35 -6 20 -8 21 -8 5z"/>
<path d="M2465 138 l-16 -33 20 25 c20 24 26 40 16 40 -2 0 -12 -15 -20 -32z"/>
<path d="M2416 67 c-15 -19 -26 -40 -26 -47 0 -11 24 20 54 68 15 25 -4 11
-28 -21z"/>
</g>
</svg>
